<svg xmlns="http://www.w3.org/2000/svg" width="201" height="70.273" viewBox="0 0 201 70.273">
  <path id="Caminho_54" data-name="Caminho 54" d="M242.593,57.766A9.5,9.5,0,0,0,236.6,56a10.322,10.322,0,0,0-6.84,2.31,7.188,7.188,0,0,0-2.739,5.744,6.889,6.889,0,0,0,2.09,5.356c1.4,1.281,3.488,1.921,6.288,1.921a9.871,9.871,0,0,0,6.878-2.31,7.889,7.889,0,0,0,2.6-6.23A5.9,5.9,0,0,0,242.593,57.766ZM65.779,118.608a6.881,6.881,0,0,0,2.74,5.3c1.833,1.572,4.475,2.367,7.944,2.367a14.261,14.261,0,0,0,9.481-3.339,27.552,27.552,0,0,0,11.236-2.406,20.609,20.609,0,0,0,4.3-2.892,13.26,13.26,0,0,0,1.439,2.057,12.213,12.213,0,0,0,9.875,4.426q7.895,0,13.069-8.248A13.4,13.4,0,0,0,130,121.926a9.416,9.416,0,0,0,6.032,2.213c2.859,0,5.814-1.145,8.889-3.435,1.2-.893,2.365-1.882,3.529-2.931a15.214,15.214,0,0,0,.71,2.446c1.025,2.619,2.8,3.939,5.322,3.92a5.778,5.778,0,0,0,4.533-1.63c.967-1.068,1.814-3.164,2.544-6.23a85.271,85.271,0,0,1,3.449-10.81,52.325,52.325,0,0,1,4.436-9.044c1.538-2.368,2.8-3.532,3.783-3.532.729,0,1.1.524,1.1,1.572,0,1.32-.256,4.056-.788,8.248a83.2,83.2,0,0,0-1,10.81,15.827,15.827,0,0,0,1.656,7.53,5.309,5.309,0,0,0,4.928,3.106c2.129,0,3.686-.524,4.652-1.572s1.813-3.144,2.542-6.288a69.939,69.939,0,0,1,3.883-11.392,48.418,48.418,0,0,1,4.79-8.694c1.6-2.193,2.819-3.3,3.686-3.3.729,0,1.1.524,1.1,1.572a50.139,50.139,0,0,1-1.3,8.558,61.094,61.094,0,0,0-1.4,9.82c0,3.668.867,6.482,2.6,8.4,1.734,1.941,4.3,2.892,7.688,2.892a19.542,19.542,0,0,0,11.235-3.339c.946-.641,1.854-1.319,2.76-2.057a9.24,9.24,0,0,0,1.6,2.582c1.734,1.94,4.3,2.891,7.688,2.891a19.6,19.6,0,0,0,11.235-3.337,44,44,0,0,0,9.225-8.559A8.954,8.954,0,0,0,253,106.245a6.036,6.036,0,0,0-.749-3.241,2.3,2.3,0,0,0-2.051-1.184,3.554,3.554,0,0,0-2.7,1.378,78.654,78.654,0,0,1-7.332,7.821c-1.834,1.611-3.411,2.407-4.731,2.407a2.71,2.71,0,0,1-1.675-.485,2.088,2.088,0,0,0-.415-.407c-.02-.019-.039-.019-.039-.039a2.664,2.664,0,0,1-.256-.388c-.987-2.5,1.636-13.371,4.237-24.162.375-1.591.769-3.183,1.143-4.755a14.4,14.4,0,0,0,.2-1.863c0-2.29-1.439-3.435-4.3-3.435-2.72,0-4.711.408-5.932,1.223a7.055,7.055,0,0,0-2.642,4.27c-1.359,5.473-2.523,11.275-3.449,17.408-.079-.019-.177-.019-.256-.039a7.12,7.12,0,0,0-.119,1.048,7.183,7.183,0,0,1-.157,1.32c-.256,1.32-.492,2.523-.67,3.629a54.861,54.861,0,0,1-4.178,4.211c-1.833,1.611-3.41,2.406-4.731,2.406-1.931,0-2.9-1.32-2.9-3.94q0-2.766,1.893-11.295,2.188-10.014,2.188-13.857,0-6.375-6.486-6.385-5.292,0-11.373,5.512t-11.078,17.583c.2-1.184.571-2.95,1.1-5.3,1.262-5.512,1.893-9.3,1.893-11.392a6.92,6.92,0,0,0-1.459-4.813c-.967-1.048-2.6-1.572-4.929-1.572a13.681,13.681,0,0,0-7.431,2.6,30.2,30.2,0,0,0-7.688,7.9,52.4,52.4,0,0,0-6.426,12.964,60.633,60.633,0,0,1,1-7.22c.395-1.921.926-4.211,1.6-6.831a36.341,36.341,0,0,0,1.5-7.084,2.02,2.02,0,0,0-.808-1.863,5.681,5.681,0,0,0-2.8-.485,10.593,10.593,0,0,0-5.737,1.32,7.29,7.29,0,0,0-2.936,4.172,78.515,78.515,0,0,0-3.667,22.512,66.1,66.1,0,0,1-4.908,5.065c-1.795,1.611-3.332,2.406-4.593,2.406a2.419,2.419,0,0,1-1.952-.893,3.567,3.567,0,0,1-.749-2.368q0-4.425,2.287-15.72a71.394,71.394,0,0,0,1.5-9.82c0-2.29-1.636-3.435-4.888-3.435a24.686,24.686,0,0,0-4.4.388,7.03,7.03,0,0,0-1.241-2.989c-.493-.563-1.479-.834-2.957-.834a22.436,22.436,0,0,0-13.01,4.27,31.2,31.2,0,0,0-9.836,11.295,31.526,31.526,0,0,0-3.686,14.245c-2.8,2.833-5.322,4.7-7.589,5.55a24.864,24.864,0,0,0,.2-2.756,12.617,12.617,0,0,0-1.656-6.346,64.4,64.4,0,0,0-4.829-7.025A36.084,36.084,0,0,1,82.1,92.5a6.344,6.344,0,0,1-1.045-3.241,13.846,13.846,0,0,1,1.794-6,14.353,14.353,0,0,0,1.1-2.562,6.713,6.713,0,0,0,.394-1.863,1.652,1.652,0,0,0-1.1-1.572,10.572,10.572,0,0,0-3.883-.485q-6,0-7.885,4.328c-1.459,3.416-2.957,6.7-4.494,9.878s-2.858,5.706-4,7.607a128.544,128.544,0,0,1-8.279,11l-1.3,1.572a5.4,5.4,0,0,0-1.4,3.59,4.029,4.029,0,0,0,1.005,2.795,3.307,3.307,0,0,0,2.6,1.126,5.3,5.3,0,0,0,3.785-1.766,70.237,70.237,0,0,0,6.623-7.277,65.011,65.011,0,0,0,6.15-9.626c.926,1.048,1.932,2.27,3,3.687a24.133,24.133,0,0,1,2.641,4.367,12.51,12.51,0,0,1,1.143,4.813c-.591-.058-1.478-.175-2.641-.349a23.906,23.906,0,0,0-3.055-.252,7.708,7.708,0,0,0-5.6,1.863A6.205,6.205,0,0,0,65.779,118.608Zm57.676-13.76a16.113,16.113,0,0,1-2.9,6.773q-1.98,2.562-4.2,2.562a4.29,4.29,0,0,1-3.45-1.475,6.8,6.8,0,0,1-1.242-4.522,26.267,26.267,0,0,1,2.09-10.421,20.922,20.922,0,0,1,5.638-7.9,12.2,12.2,0,0,1,7.727-3.105Z" transform="translate(-52 -56)" fill="#fff" fill-rule="evenodd"/>
</svg>
