<svg xmlns="http://www.w3.org/2000/svg" width="23.626" height="17.719" viewBox="0 0 23.626 17.719"><defs><style>.a{fill:#b1b1b1;}</style></defs><path class="a" d="M21.411,59.882H2.215A2.217,2.217,0,0,0,0,62.1V75.386A2.217,2.217,0,0,0,2.215,77.6h19.2a2.217,2.217,0,0,0,2.215-2.215V62.1A2.217,2.217,0,0,0,21.411,59.882Zm0,1.477a.734.734,0,0,1,.283.057L11.813,69.98,1.932,61.416a.735.735,0,0,1,.283-.057Zm0,14.766H2.215a.739.739,0,0,1-.738-.738V62.976l9.852,8.539a.739.739,0,0,0,.968,0l9.852-8.539V75.386A.739.739,0,0,1,21.411,76.125Z" transform="translate(0 -59.882)"/></svg>