<svg xmlns="http://www.w3.org/2000/svg" width="27.189" height="17.329" viewBox="0 0 27.189 17.329"><defs><style>.a{fill:#a2a2a2;}</style></defs><g transform="translate(0 -92.835)"><g transform="translate(0 92.835)"><g transform="translate(0 0)"><path class="a" d="M27.016,100.971c-.243-.332-6.03-8.136-13.422-8.136S.415,100.638.173,100.97a.9.9,0,0,0,0,1.058c.243.332,6.03,8.136,13.422,8.136s13.179-7.8,13.422-8.135A.9.9,0,0,0,27.016,100.971Zm-13.422,7.4c-5.445,0-10.16-5.179-11.556-6.872,1.394-1.695,6.1-6.871,11.556-6.871s10.16,5.178,11.556,6.872C23.756,103.195,19.05,108.371,13.594,108.371Z" transform="translate(0 -92.835)"/></g></g><g transform="translate(8.216 96.122)"><g transform="translate(0 0)"><path class="a" d="M160.1,154.725a5.378,5.378,0,1,0,5.378,5.378A5.384,5.384,0,0,0,160.1,154.725Zm0,8.963a3.585,3.585,0,1,1,3.585-3.585A3.589,3.589,0,0,1,160.1,163.688Z" transform="translate(-154.722 -154.725)"/></g></g></g></svg>