<svg xmlns="http://www.w3.org/2000/svg" width="19.25" height="27" viewBox="0 0 19.25 27"><defs><style>.a{fill:#a4a4a4;}</style></defs><path class="a" d="M16.844,208.875H2.406A2.474,2.474,0,0,1,0,206.344V194.531A2.474,2.474,0,0,1,2.406,192H16.844a2.474,2.474,0,0,1,2.406,2.531v11.813A2.474,2.474,0,0,1,16.844,208.875ZM2.406,193.688a.825.825,0,0,0-.8.844v11.813a.825.825,0,0,0,.8.844H16.844a.825.825,0,0,0,.8-.844V194.531a.825.825,0,0,0-.8-.844Zm0,0" transform="translate(0 -181.875)"/><path class="a" d="M75.719,11.813a.815.815,0,0,1-.781-.844V6.75a4.7,4.7,0,1,0-9.375,0v4.219a.784.784,0,1,1-1.562,0V6.75a6.269,6.269,0,1,1,12.5,0v4.219A.815.815,0,0,1,75.719,11.813Zm0,0" transform="translate(-60.625)"/></svg>