<svg xmlns="http://www.w3.org/2000/svg" xmlns:xlink="http://www.w3.org/1999/xlink" width="1920" height="1080" viewBox="0 0 1920 1080"><defs><style>.a{fill:#fff;stroke:#707070;}.b{clip-path:url(#a);}.c{fill:#000750;}.d{fill:url(#b);}.e{filter:url(#f);}.f{filter:url(#c);}</style><clipPath id="a"><rect class="a" width="1920" height="1080"/></clipPath><linearGradient id="b" x1="0.153" y1="0.266" x2="0.494" y2="0.886" gradientUnits="objectBoundingBox"><stop offset="0" stop-color="#000050"/><stop offset="1" stop-color="#004298"/></linearGradient><filter id="c" x="-296.163" y="-370.289" width="950.85" height="950.85" filterUnits="userSpaceOnUse"><feOffset dx="-10" dy="50" input="SourceAlpha"/><feGaussianBlur stdDeviation="20" result="d"/><feFlood flood-color="#000041"/><feComposite operator="in" in2="d"/><feComposite in="SourceGraphic"/></filter><filter id="f" x="-70.162" y="611.71" width="950.85" height="950.851" filterUnits="userSpaceOnUse"><feOffset dx="-10" dy="50" input="SourceAlpha"/><feGaussianBlur stdDeviation="20" result="g"/><feFlood flood-color="#000041"/><feComposite operator="in" in2="g"/><feComposite in="SourceGraphic"/></filter></defs><g class="b"><path class="c" d="M0,0H1079.949V1920H0Z" transform="translate(1920 0.051) rotate(90)"/><g class="f" transform="matrix(1, 0, 0, 1, 0, 0)"><path class="d" d="M0,0H258a0,0,0,0,1,0,0V788A129,129,0,0,1,129,917h0A129,129,0,0,1,0,788V0A0,0,0,0,1,0,0Z" transform="translate(-226.16 -177.86) rotate(-45)"/></g><g class="e" transform="matrix(1, 0, 0, 1, 0, 0)"><path class="d" d="M0,0H258a0,0,0,0,1,0,0V788A129,129,0,0,1,129,917h0A129,129,0,0,1,0,788V0A0,0,0,0,1,0,0Z" transform="translate(830.69 1270.13) rotate(135)"/></g></g></svg>